<svg id="Art" xmlns="http://www.w3.org/2000/svg" xmlns:xlink="http://www.w3.org/1999/xlink" viewBox="0 0 102 102">
  <defs>
    <style>
      .cls-1 {
        fill: none;
      }

      .cls-2 {
        clip-path: url(#clip-path);
      }

      .cls-3 {
        fill: #ea4335;
      }

      .cls-4 {
        fill: #4285f4;
      }

      .cls-5 {
        fill: #34a853;
      }

      .cls-6 {
        fill: #fbbc05;
      }
    </style>
    <clipPath id="clip-path">
      <rect class="cls-1" width="102" height="102"/>
    </clipPath>
  </defs>
  <g class="cls-2">
    <g>
      <path class="cls-3" d="M64.34,32.34l3.13.06L76,23.89l.42-3.6a38.2,38.2,0,0,0-62.3,18.57C15,38.22,17,38.7,17,38.7l17-2.8s.88-1.44,1.31-1.35a21.19,21.19,0,0,1,29-2.21Z"/>
      <path class="cls-4" d="M87.92,38.88a38.32,38.32,0,0,0-11.54-18.6l-12,12a21.2,21.2,0,0,1,7.92,16.53V51a10.63,10.63,0,1,1,0,21.25H51l-2.12,2.14V87.12L51,89.24H72.25A27.61,27.61,0,0,0,87.92,38.88Z"/>
      <path class="cls-5" d="M29.75,89.24H51v-17H29.75a10.54,10.54,0,0,1-4.38-1l-3.06.94L13.8,80.73l-.74,2.88A27.47,27.47,0,0,0,29.75,89.24Z"/>
      <path class="cls-6" d="M29.75,34A27.61,27.61,0,0,0,13.07,83.61L25.39,71.29a10.62,10.62,0,1,1,14-14L51.75,44.93A27.6,27.6,0,0,0,29.75,34Z"/>
    </g>
  </g>
</svg>
